<mxfile host="65bd71144e">
    <diagram id="zFstFgx8KPD3snw3ziyz" name="페이지-1">
        <mxGraphModel dx="2280" dy="973" grid="1" gridSize="10" guides="1" tooltips="1" connect="1" arrows="1" fold="1" page="1" pageScale="1" pageWidth="827" pageHeight="1169" background="#114B5F" math="0" shadow="0">
            <root>
                <mxCell id="0"/>
                <mxCell id="1" parent="0"/>
                <mxCell id="222" value="&lt;font style=&quot;font-size: 12px;&quot;&gt;의사결정&lt;br&gt;비교 및 판단&lt;/font&gt;" style="rhombus;whiteSpace=wrap;html=1;fillColor=#6d8764;strokeColor=#3A5431;fontColor=#ffffff;rounded=1;glass=0;strokeWidth=1;shadow=0;" vertex="1" parent="1">
                    <mxGeometry x="5" y="71" width="90" height="90" as="geometry"/>
                </mxCell>
                <mxCell id="223" style="edgeStyle=none;html=1;exitX=0.5;exitY=1;exitDx=0;exitDy=0;entryX=0.5;entryY=0;entryDx=0;entryDy=0;" edge="1" parent="1" source="224" target="232">
                    <mxGeometry relative="1" as="geometry">
                        <mxPoint x="828" y="200" as="targetPoint"/>
                    </mxGeometry>
                </mxCell>
                <mxCell id="224" value="계정의 token 을 기반으로 권한에 맞는 data 호출" style="whiteSpace=wrap;html=1;fillColor=#F45B69;strokeColor=#C34651;fontColor=#E4FDE1;rounded=1;glass=0;strokeWidth=1;shadow=0;" vertex="1" parent="1">
                    <mxGeometry x="755" y="110" width="145" height="60" as="geometry"/>
                </mxCell>
                <mxCell id="225" style="edgeStyle=none;html=1;exitX=0.5;exitY=1;exitDx=0;exitDy=0;" edge="1" parent="1" source="226" target="224">
                    <mxGeometry relative="1" as="geometry"/>
                </mxCell>
                <mxCell id="226" value="&lt;font color=&quot;#ffffff&quot;&gt;시작 - Monitoring Page&lt;/font&gt;" style="ellipse;whiteSpace=wrap;html=1;fillStyle=auto;fillColor=#f0a30a;fontColor=#000000;strokeColor=#BD7000;" vertex="1" parent="1">
                    <mxGeometry x="755" y="30" width="146" height="50" as="geometry"/>
                </mxCell>
                <mxCell id="227" value="표시&lt;br&gt;화면으로 결과 출력" style="shape=document;whiteSpace=wrap;html=1;boundedLbl=1;fillColor=#76608a;strokeColor=#432D57;fontColor=#ffffff;rounded=1;glass=0;strokeWidth=1;shadow=0;" vertex="1" parent="1">
                    <mxGeometry x="105" y="79" width="90" height="70" as="geometry"/>
                </mxCell>
                <mxCell id="228" value="처리&lt;br&gt;작업 명시" style="whiteSpace=wrap;html=1;fillColor=#F45B69;strokeColor=#C34651;fontColor=#E4FDE1;rounded=1;glass=0;strokeWidth=1;shadow=0;" vertex="1" parent="1">
                    <mxGeometry x="110" y="9" width="80" height="50" as="geometry"/>
                </mxCell>
                <mxCell id="229" value="&lt;font color=&quot;#ffffff&quot;&gt;시작&lt;br&gt;끝&lt;/font&gt;" style="ellipse;whiteSpace=wrap;html=1;fillStyle=auto;fillColor=#f0a30a;fontColor=#000000;strokeColor=#BD7000;" vertex="1" parent="1">
                    <mxGeometry x="10" y="9" width="80" height="50" as="geometry"/>
                </mxCell>
                <mxCell id="230" style="edgeStyle=none;html=1;exitX=0.5;exitY=1;exitDx=0;exitDy=0;entryX=0.5;entryY=0;entryDx=0;entryDy=0;" edge="1" parent="1" source="232" target="324">
                    <mxGeometry relative="1" as="geometry">
                        <mxPoint x="828" y="317.65" as="targetPoint"/>
                    </mxGeometry>
                </mxCell>
                <mxCell id="323" style="edgeStyle=none;html=1;exitX=0;exitY=0.5;exitDx=0;exitDy=0;entryX=1;entryY=0.364;entryDx=0;entryDy=0;entryPerimeter=0;" edge="1" parent="1" source="232" target="322">
                    <mxGeometry relative="1" as="geometry"/>
                </mxCell>
                <mxCell id="232" value="설비선택&lt;br&gt;Select Tree&lt;br&gt;선택 여부" style="rhombus;whiteSpace=wrap;html=1;fillColor=#6d8764;strokeColor=#3A5431;fontColor=#ffffff;rounded=1;glass=0;strokeWidth=1;shadow=0;" vertex="1" parent="1">
                    <mxGeometry x="787.5" y="200" width="80" height="80" as="geometry"/>
                </mxCell>
                <mxCell id="233" value="NO" style="text;html=1;align=center;verticalAlign=middle;resizable=0;points=[];autosize=1;strokeColor=none;fillColor=none;" vertex="1" parent="1">
                    <mxGeometry x="747.5" y="210" width="40" height="30" as="geometry"/>
                </mxCell>
                <mxCell id="234" value="YES" style="text;html=1;align=center;verticalAlign=middle;resizable=0;points=[];autosize=1;strokeColor=none;fillColor=none;" vertex="1" parent="1">
                    <mxGeometry x="827" y="270" width="50" height="30" as="geometry"/>
                </mxCell>
                <mxCell id="322" value="data 가 없다는 표시와 함께 빈 카드 출력.&lt;br&gt;카드리스트가 출력되는 하단 박스에는 센서 선택을 권장하는 문구 출력." style="shape=document;whiteSpace=wrap;html=1;boundedLbl=1;fillColor=#76608a;strokeColor=#432D57;fontColor=#ffffff;rounded=1;glass=0;strokeWidth=1;shadow=0;" vertex="1" parent="1">
                    <mxGeometry x="560" y="200" width="160" height="110" as="geometry"/>
                </mxCell>
                <mxCell id="337" style="edgeStyle=orthogonalEdgeStyle;html=1;exitX=0.5;exitY=1;exitDx=0;exitDy=0;entryX=0.5;entryY=0;entryDx=0;entryDy=0;" edge="1" parent="1" source="324" target="340">
                    <mxGeometry relative="1" as="geometry">
                        <mxPoint x="920.48" y="438.78999999999996" as="targetPoint"/>
                    </mxGeometry>
                </mxCell>
                <mxCell id="338" style="edgeStyle=orthogonalEdgeStyle;html=1;exitX=0.5;exitY=1;exitDx=0;exitDy=0;entryX=0.5;entryY=0;entryDx=0;entryDy=0;" edge="1" parent="1" source="324" target="325">
                    <mxGeometry relative="1" as="geometry">
                        <mxPoint x="738.8799999999999" y="439.56000000000006" as="targetPoint"/>
                    </mxGeometry>
                </mxCell>
                <mxCell id="324" value="Real Time&lt;br&gt;or&lt;br&gt;Trend&lt;br&gt;선택 여부" style="rhombus;whiteSpace=wrap;html=1;fillColor=#6d8764;strokeColor=#3A5431;fontColor=#ffffff;rounded=1;glass=0;strokeWidth=1;shadow=0;" vertex="1" parent="1">
                    <mxGeometry x="783" y="310" width="90" height="90" as="geometry"/>
                </mxCell>
                <mxCell id="342" style="edgeStyle=orthogonalEdgeStyle;html=1;exitX=0.5;exitY=1;exitDx=0;exitDy=0;entryX=0.5;entryY=0;entryDx=0;entryDy=0;" edge="1" parent="1" source="325">
                    <mxGeometry relative="1" as="geometry">
                        <mxPoint x="737.0000000000002" y="537" as="targetPoint"/>
                    </mxGeometry>
                </mxCell>
                <mxCell id="325" value="선택한 센서를 Trend Chart 로 출력하기위해 필요한 api 호출." style="whiteSpace=wrap;html=1;fillColor=#F45B69;strokeColor=#C34651;fontColor=#E4FDE1;rounded=1;glass=0;strokeWidth=1;shadow=0;" vertex="1" parent="1">
                    <mxGeometry x="677" y="441" width="120" height="70" as="geometry"/>
                </mxCell>
                <mxCell id="333" value="NO" style="text;html=1;align=center;verticalAlign=middle;resizable=0;points=[];autosize=1;strokeColor=none;fillColor=none;" vertex="1" parent="1">
                    <mxGeometry x="770" y="390" width="40" height="30" as="geometry"/>
                </mxCell>
                <mxCell id="334" value="YES" style="text;html=1;align=center;verticalAlign=middle;resizable=0;points=[];autosize=1;strokeColor=none;fillColor=none;" vertex="1" parent="1">
                    <mxGeometry x="840" y="390" width="50" height="30" as="geometry"/>
                </mxCell>
                <mxCell id="343" style="edgeStyle=orthogonalEdgeStyle;html=1;exitX=0.5;exitY=1;exitDx=0;exitDy=0;entryX=0.5;entryY=0;entryDx=0;entryDy=0;" edge="1" parent="1" source="340">
                    <mxGeometry relative="1" as="geometry">
                        <mxPoint x="917" y="537" as="targetPoint"/>
                    </mxGeometry>
                </mxCell>
                <mxCell id="340" value="선택한 센서를 Real Time Chart 로 출력하기위해 필요한 api 호출." style="whiteSpace=wrap;html=1;fillColor=#F45B69;strokeColor=#C34651;fontColor=#E4FDE1;rounded=1;glass=0;strokeWidth=1;shadow=0;" vertex="1" parent="1">
                    <mxGeometry x="857" y="441" width="120" height="70" as="geometry"/>
                </mxCell>
                <mxCell id="349" style="edgeStyle=orthogonalEdgeStyle;html=1;exitX=0;exitY=0.5;exitDx=0;exitDy=0;entryX=1.008;entryY=0.381;entryDx=0;entryDy=0;entryPerimeter=0;" edge="1" parent="1" source="344" target="346">
                    <mxGeometry relative="1" as="geometry"/>
                </mxCell>
                <mxCell id="352" style="edgeStyle=orthogonalEdgeStyle;html=1;exitX=0.5;exitY=1;exitDx=0;exitDy=0;entryX=0.5;entryY=0;entryDx=0;entryDy=0;" edge="1" parent="1" source="344" target="351">
                    <mxGeometry relative="1" as="geometry"/>
                </mxCell>
                <mxCell id="344" value="Date&lt;br&gt;선택 여부" style="rhombus;whiteSpace=wrap;html=1;fillColor=#6d8764;strokeColor=#3A5431;fontColor=#ffffff;rounded=1;glass=0;strokeWidth=1;shadow=0;" vertex="1" parent="1">
                    <mxGeometry x="692" y="537" width="90" height="90" as="geometry"/>
                </mxCell>
                <mxCell id="359" style="edgeStyle=orthogonalEdgeStyle;html=1;exitX=1;exitY=0.5;exitDx=0;exitDy=0;entryX=0;entryY=0.382;entryDx=0;entryDy=0;entryPerimeter=0;" edge="1" parent="1" source="345" target="357">
                    <mxGeometry relative="1" as="geometry"/>
                </mxCell>
                <mxCell id="362" style="edgeStyle=orthogonalEdgeStyle;html=1;exitX=0.5;exitY=1;exitDx=0;exitDy=0;entryX=0.5;entryY=0;entryDx=0;entryDy=0;" edge="1" parent="1" source="345" target="361">
                    <mxGeometry relative="1" as="geometry"/>
                </mxCell>
                <mxCell id="345" value="Time&lt;br&gt;선택 여부" style="rhombus;whiteSpace=wrap;html=1;fillColor=#6d8764;strokeColor=#3A5431;fontColor=#ffffff;rounded=1;glass=0;strokeWidth=1;shadow=0;" vertex="1" parent="1">
                    <mxGeometry x="872" y="537" width="90" height="90" as="geometry"/>
                </mxCell>
                <mxCell id="346" value="api 호출을 통해 가져온 현재시각을 기준으로 1시간 전까지의 sensor data 를 Area Chart 로 출력.&amp;nbsp;" style="shape=document;whiteSpace=wrap;html=1;boundedLbl=1;fillColor=#76608a;strokeColor=#432D57;fontColor=#ffffff;rounded=1;glass=0;strokeWidth=1;shadow=0;" vertex="1" parent="1">
                    <mxGeometry x="487" y="540" width="160" height="110" as="geometry"/>
                </mxCell>
                <mxCell id="350" value="NO" style="text;html=1;align=center;verticalAlign=middle;resizable=0;points=[];autosize=1;strokeColor=none;fillColor=none;" vertex="1" parent="1">
                    <mxGeometry x="652" y="550" width="40" height="30" as="geometry"/>
                </mxCell>
                <mxCell id="351" value="api 호출을 통해 가져온, Date 선택 기준의 sensor data 를 Area Chart 로 출력.&amp;nbsp;" style="shape=document;whiteSpace=wrap;html=1;boundedLbl=1;fillColor=#76608a;strokeColor=#432D57;fontColor=#ffffff;rounded=1;glass=0;strokeWidth=1;shadow=0;" vertex="1" parent="1">
                    <mxGeometry x="657" y="660" width="160" height="110" as="geometry"/>
                </mxCell>
                <mxCell id="353" value="YES" style="text;html=1;align=center;verticalAlign=middle;resizable=0;points=[];autosize=1;strokeColor=none;fillColor=none;" vertex="1" parent="1">
                    <mxGeometry x="737.5" y="627" width="50" height="30" as="geometry"/>
                </mxCell>
                <mxCell id="357" value="Real Time Chart 의 flow 가&lt;br&gt;30초 기준으로 한페이지에 출력.&lt;br&gt;(ex. 22:00:00 ~ 22:00:30)" style="shape=document;whiteSpace=wrap;html=1;boundedLbl=1;fillColor=#76608a;strokeColor=#432D57;fontColor=#ffffff;rounded=1;glass=0;strokeWidth=1;shadow=0;" vertex="1" parent="1">
                    <mxGeometry x="1000" y="540" width="180" height="110" as="geometry"/>
                </mxCell>
                <mxCell id="360" value="NO" style="text;html=1;align=center;verticalAlign=middle;resizable=0;points=[];autosize=1;strokeColor=none;fillColor=none;" vertex="1" parent="1">
                    <mxGeometry x="960" y="555" width="40" height="30" as="geometry"/>
                </mxCell>
                <mxCell id="361" value="Real Time Chart 의 flow 가&lt;br&gt;Time 선택 기준으로 한페이지에 출력. &lt;br&gt;(ex. 22:00:00 ~ 22:05:00)" style="shape=document;whiteSpace=wrap;html=1;boundedLbl=1;fillColor=#76608a;strokeColor=#432D57;fontColor=#ffffff;rounded=1;glass=0;strokeWidth=1;shadow=0;" vertex="1" parent="1">
                    <mxGeometry x="837" y="660" width="160" height="110" as="geometry"/>
                </mxCell>
                <mxCell id="363" value="YES" style="text;html=1;align=center;verticalAlign=middle;resizable=0;points=[];autosize=1;strokeColor=none;fillColor=none;" vertex="1" parent="1">
                    <mxGeometry x="918" y="627" width="50" height="30" as="geometry"/>
                </mxCell>
            </root>
        </mxGraphModel>
    </diagram>
</mxfile>